<svg version="1.1" id="Layer_1" xmlns="http://www.w3.org/2000/svg" xmlns:xlink="http://www.w3.org/1999/xlink" x="0px" y="0px"
	 width="100%" viewBox="0 0 512 512" enable-background="new 0 0 512 512" xml:space="preserve">
<path fill="#000000" opacity="1.000000" stroke="none" 
	d="
M245.000000,1.000000 
	C334.286957,1.000000 423.573883,1.000000 512.930420,1.000000 
	C512.930420,171.666656 512.930420,342.333313 512.930420,513.000000 
	C492.249237,513.000000 471.593292,513.000000 450.170715,512.717407 
	C451.728302,510.005280 455.105286,507.966339 456.178497,505.072937 
	C459.350006,496.522308 459.175110,487.658203 455.971405,478.635864 
	C453.039886,473.344055 448.682800,471.071686 443.100983,471.010132 
	C437.769409,470.951355 432.436890,470.977081 427.151367,470.624756 
	C431.615875,466.733704 433.054382,462.058075 433.046661,456.497314 
	C432.969238,400.852417 433.009827,345.207367 432.991791,289.562378 
	C432.987701,276.932007 426.438110,271.320709 415.257629,271.157990 
	C386.279480,270.736359 357.289703,271.111572 327.911804,271.085754 
	C324.689209,269.673584 321.859344,268.344330 319.402771,266.990204 
	C328.474792,264.580963 335.195953,259.119934 339.896515,251.851532 
	C346.345703,241.879333 348.489807,230.755234 346.049622,218.812805 
	C344.123932,209.388351 339.779633,202.032471 331.046387,197.466705 
	C328.459412,196.114243 326.040955,194.282593 323.875427,192.308380 
	C314.925507,184.149109 312.352173,173.164246 310.793091,161.603653 
	C310.871338,161.399231 311.015472,160.985886 311.342834,160.900970 
	C323.751129,151.169632 323.038361,134.841125 315.907776,125.611549 
	C315.979065,116.493050 316.135712,107.841660 315.955109,99.197311 
	C315.792816,91.431366 315.976990,83.558540 314.757721,75.932823 
	C310.946259,52.094921 299.094391,32.797482 279.757477,18.381498 
	C269.423462,10.677322 258.130829,4.661550 244.973816,2.556261 
	C244.929977,1.822807 244.964996,1.411404 245.000000,1.000000 
z"/>
<path fill="#000000" opacity="1.000000" stroke="none" 
	d="
M77.000000,513.000000 
	C51.680630,513.000000 26.361261,513.000000 1.020947,513.000000 
	C1.020947,342.441376 1.020947,171.882751 1.020947,1.000000 
	C69.353889,1.000000 137.708282,1.000000 206.585678,1.390820 
	C206.282883,2.191178 205.498856,2.777094 204.625092,2.984003 
	C189.668854,6.525600 176.613052,13.837758 165.466400,24.145538 
	C146.913757,41.301949 137.535995,63.091728 136.108948,88.101860 
	C135.389435,100.711739 136.069672,113.401482 135.958649,126.382996 
	C127.465164,138.382782 130.499466,153.587646 140.927551,161.600830 
	C140.125000,173.308807 137.465073,183.945572 128.578644,191.745239 
	C124.282387,195.516068 118.932137,198.097839 114.696114,201.923340 
	C101.754135,213.611023 101.868607,242.397507 115.271965,255.525696 
	C120.326271,260.476227 126.962433,263.811768 132.505035,267.943970 
	C124.076157,271.303772 116.019768,274.603027 107.575439,277.941071 
	C91.614532,282.648438 77.413902,289.545563 67.449272,303.046722 
	C61.373825,311.278351 56.359821,320.469147 56.198452,330.655670 
	C55.689720,362.768921 56.106030,394.896820 56.091904,427.481567 
	C56.013046,445.422668 56.106491,462.902100 55.968449,480.379700 
	C55.859154,494.217804 62.184937,503.880341 74.311806,510.119476 
	C75.410950,510.684937 76.113350,512.021545 77.000000,513.000000 
z"/>
<path fill="#CEC8C6" opacity="1.000000" stroke="none" 
	d="
M456.115570,478.958557 
	C459.175110,487.658203 459.350006,496.522308 456.178497,505.072937 
	C455.105286,507.966339 451.728302,510.005280 449.702057,512.717407 
	C354.979095,513.000000 259.958221,513.000000 164.267944,512.732422 
	C162.732803,511.975677 161.843750,511.523224 161.004883,510.991638 
	C152.175781,505.396698 149.309341,487.239471 156.102448,479.233185 
	C161.180679,485.405304 168.029175,485.942413 174.863220,485.947266 
	C261.447388,486.008911 348.031555,485.979736 434.615753,486.001190 
	C442.582001,486.003143 450.198395,485.123169 456.115570,478.958557 
z"/>
<path fill="#7F4D2A" opacity="1.000000" stroke="none" 
	d="
M136.116974,126.055115 
	C136.069672,113.401482 135.389435,100.711739 136.108948,88.101860 
	C137.535995,63.091728 146.913757,41.301949 165.466400,24.145538 
	C176.613052,13.837758 189.668854,6.525600 204.625092,2.984003 
	C205.498856,2.777094 206.282883,2.191178 207.054337,1.390820 
	C219.354233,1.000000 231.708450,1.000000 244.531342,1.000000 
	C244.964996,1.411404 244.929977,1.822807 244.724518,2.840769 
	C238.165817,5.733946 231.348083,7.232064 225.461090,10.438839 
	C194.038910,27.555180 177.218674,54.036732 176.040466,90.019043 
	C175.751755,98.835815 175.984619,107.669662 175.520660,116.586212 
	C170.384430,116.745552 165.705200,116.814331 160.694855,116.679886 
	C150.505341,115.173447 142.816055,119.360970 136.116974,126.055115 
z"/>
<path fill="#F4BCA4" opacity="1.000000" stroke="none" 
	d="
M155.933273,478.924866 
	C149.309341,487.239471 152.175781,505.396698 161.004883,510.991638 
	C161.843750,511.523224 162.732803,511.975677 163.799286,512.732422 
	C145.312439,513.000000 126.624878,513.000000 107.260101,512.733337 
	C93.406509,505.243378 86.305191,494.773926 86.852341,479.087952 
	C87.454529,461.823853 86.982811,444.522247 87.445999,427.174866 
	C94.954056,427.357361 101.995056,427.601990 109.262863,428.203186 
	C109.593964,433.870483 109.773170,439.181000 109.788185,444.491943 
	C109.829727,459.182526 110.183487,459.543152 125.438988,458.899902 
	C143.303268,458.967346 160.699463,458.985443 178.335678,459.275635 
	C180.220245,463.311188 181.864777,467.074646 183.593063,471.029785 
	C179.557907,471.029785 175.108856,470.726807 170.718262,471.104004 
	C164.792038,471.613159 158.742325,472.330139 155.933273,478.924866 
z"/>
<path fill="#EFA78B" opacity="1.000000" stroke="none" 
	d="
M86.978935,427.237000 
	C86.982811,444.522247 87.454529,461.823853 86.852341,479.087952 
	C86.305191,494.773926 93.406509,505.243378 106.791443,512.733337 
	C97.312439,513.000000 87.624878,513.000000 77.468658,513.000000 
	C76.113350,512.021545 75.410950,510.684937 74.311806,510.119476 
	C62.184937,503.880341 55.859154,494.217804 55.968449,480.379700 
	C56.106491,462.902100 56.013046,445.422668 56.549713,427.476471 
	C67.062813,426.952332 77.045647,426.895752 87.014160,426.938385 
	C86.999832,427.037598 86.978935,427.237000 86.978935,427.237000 
z"/>
<path fill="#EDEBED" opacity="1.000000" stroke="none" 
	d="
M328.304565,271.168671 
	C357.289703,271.111572 386.279480,270.736359 415.257629,271.157990 
	C426.438110,271.320709 432.987701,276.932007 432.991791,289.562378 
	C433.009827,345.207367 432.969238,400.852417 433.046661,456.497314 
	C433.054382,462.058075 431.615875,466.733704 426.756592,470.679108 
	C423.248840,471.720490 420.183411,472.925232 417.115906,472.930420 
	C352.618225,473.039551 288.120331,473.023499 223.622452,473.001099 
	C215.273605,472.998199 209.019516,466.845673 209.015198,458.588104 
	C208.985397,401.589996 209.013351,344.591858 208.971039,287.593781 
	C208.967880,283.341339 210.123627,279.766174 213.466644,276.996002 
	C215.372299,275.416901 217.193832,273.736298 219.515579,272.068848 
	C244.017151,271.988098 268.056366,271.939911 292.557312,271.922180 
	C300.852295,271.959198 308.686829,272.052551 316.518280,271.935883 
	C320.449982,271.877289 324.375977,271.436584 328.304565,271.168671 
M321.836456,397.765991 
	C331.771606,386.240784 336.975250,372.917267 337.188721,357.657928 
	C337.231018,354.635925 336.436340,352.339203 333.124084,351.826080 
	C327.076111,350.889160 321.013611,350.046387 314.031189,349.053680 
	C305.071472,349.387573 296.026001,349.064148 287.173370,350.219025 
	C275.678192,351.718658 272.768677,350.524231 274.918182,364.553375 
	C277.825317,383.527039 286.946625,398.466095 302.712036,409.291870 
	C304.059326,410.217072 307.003967,410.687805 308.036377,409.877960 
	C312.676422,406.238098 316.893677,402.059204 321.836456,397.765991 
z"/>
<path fill="#935D38" opacity="1.000000" stroke="none" 
	d="
M175.977692,116.495651 
	C175.984619,107.669662 175.751755,98.835815 176.040466,90.019043 
	C177.218674,54.036732 194.038910,27.555180 225.461090,10.438839 
	C231.348083,7.232064 238.165817,5.733946 244.803345,3.162820 
	C258.130829,4.661550 269.423462,10.677322 279.757477,18.381498 
	C299.094391,32.797482 310.946259,52.094921 314.757721,75.932823 
	C315.976990,83.558540 315.792816,91.431366 315.955109,99.197311 
	C316.135712,107.841660 315.979065,116.493050 315.626770,125.478424 
	C314.192932,124.870964 313.101532,123.926460 311.853577,122.678650 
	C305.574554,117.599388 298.942871,114.779312 290.535095,116.942596 
	C281.595154,116.895699 273.122040,116.922310 264.649231,116.884895 
	C247.817917,116.810577 234.684433,107.881752 228.287262,92.251266 
	C227.785782,91.025955 227.066605,89.889740 226.324722,88.476044 
	C222.806824,94.154503 220.387695,99.801720 216.419418,103.976402 
	C212.425751,108.177818 206.891602,110.914917 201.655350,114.342606 
	C192.844711,115.092911 184.411209,115.794281 175.977692,116.495651 
z"/>
<path fill="#E0D9D5" opacity="1.000000" stroke="none" 
	d="
M219.053253,272.101410 
	C217.193832,273.736298 215.372299,275.416901 213.466644,276.996002 
	C210.123627,279.766174 208.967880,283.341339 208.971039,287.593781 
	C209.013351,344.591858 208.985397,401.589996 209.015198,458.588104 
	C209.019516,466.845673 215.273605,472.998199 223.622452,473.001099 
	C288.120331,473.023499 352.618225,473.039551 417.115906,472.930420 
	C420.183411,472.925232 423.248840,471.720490 426.710022,471.020020 
	C432.436890,470.977081 437.769409,470.951355 443.100983,471.010132 
	C448.682800,471.071686 453.039886,473.344055 455.971405,478.635864 
	C450.198395,485.123169 442.582001,486.003143 434.615753,486.001190 
	C348.031555,485.979736 261.447388,486.008911 174.863220,485.947266 
	C168.029175,485.942413 161.180679,485.405304 156.102448,479.233185 
	C158.742325,472.330139 164.792038,471.613159 170.718262,471.104004 
	C175.108856,470.726807 179.557907,471.029785 183.593063,471.029785 
	C181.864777,467.074646 180.220245,463.311188 178.394669,458.809753 
	C178.223206,405.376404 178.234543,352.681030 178.232132,299.985687 
	C178.232071,298.660187 178.080536,297.334686 178.018250,295.553711 
	C178.037964,293.272797 177.977097,291.444885 178.050598,289.622375 
	C178.436661,280.049866 184.019196,270.997711 196.163376,271.892456 
	C203.757233,272.451965 211.420914,272.064148 219.053253,272.101410 
z"/>
<path fill="#935D38" opacity="1.000000" stroke="none" 
	d="
M310.714844,161.808075 
	C312.352173,173.164246 314.925507,184.149109 323.875427,192.308380 
	C326.040955,194.282593 328.459412,196.114243 331.046387,197.466705 
	C339.779633,202.032471 344.123932,209.388351 346.049622,218.812805 
	C348.489807,230.755234 346.345703,241.879333 339.896515,251.851532 
	C335.195953,259.119934 328.474792,264.580963 318.992126,266.988831 
	C316.302368,266.595398 314.331757,266.364258 312.502869,265.726624 
	C307.064117,263.830353 301.681122,261.774231 296.006775,259.546387 
	C288.669403,256.542542 281.603638,253.767593 274.533112,251.004807 
	C266.739807,247.959549 263.020081,242.650345 262.942261,234.361908 
	C262.887909,228.576035 262.880585,222.789734 263.080078,216.751007 
	C280.352814,203.966522 289.336395,187.006088 291.484131,166.032257 
	C298.712738,166.909225 304.837646,164.910141 310.714844,161.808075 
z"/>
<path fill="#EEA78B" opacity="1.000000" stroke="none" 
	d="
M310.793091,161.603653 
	C304.837646,164.910141 298.712738,166.909225 291.470947,165.560822 
	C291.001862,149.060303 291.001984,133.023743 291.002106,116.987167 
	C298.942871,114.779312 305.574554,117.599388 311.568237,122.984833 
	C311.298096,136.058182 311.156799,148.522034 311.015472,160.985886 
	C311.015472,160.985886 310.871338,161.399231 310.793091,161.603653 
z"/>
<path fill="#F4BCA4" opacity="1.000000" stroke="none" 
	d="
M311.342834,160.900970 
	C311.156799,148.522034 311.298096,136.058182 311.724792,123.288147 
	C313.101532,123.926460 314.192932,124.870964 315.565308,125.948593 
	C323.038361,134.841125 323.751129,151.169632 311.342834,160.900970 
z"/>
<path fill="#FB6162" opacity="1.000000" stroke="none" 
	d="
M296.276337,259.780609 
	C301.681122,261.774231 307.064117,263.830353 312.502869,265.726624 
	C314.331757,266.364258 316.302368,266.595398 318.618835,267.013702 
	C321.859344,268.344330 324.689209,269.673584 327.911804,271.085754 
	C324.375977,271.436584 320.449982,271.877289 316.518280,271.935883 
	C308.686829,272.052551 300.852295,271.959198 292.563721,271.561401 
	C293.497711,267.373657 294.887024,263.577118 296.276337,259.780609 
z"/>
<path fill="#FC5F61" opacity="1.000000" stroke="none" 
	d="
M177.999634,296.009186 
	C178.080536,297.334686 178.232071,298.660187 178.232132,299.985687 
	C178.234543,352.681030 178.223206,405.376404 178.154648,458.537659 
	C160.699463,458.985443 143.303268,458.967346 125.448769,458.444275 
	C124.993721,435.003113 124.999413,412.066895 124.993958,389.130707 
	C124.993637,387.804169 125.179108,386.392944 124.803284,385.166626 
	C123.570442,381.144043 121.202385,378.731964 116.487190,378.914337 
	C112.217964,379.079498 110.655197,381.498535 110.038879,385.090546 
	C109.592743,387.690674 109.076813,390.322601 109.054848,392.944244 
	C108.957367,404.577576 109.026909,416.212372 109.036049,427.846619 
	C101.995056,427.601990 94.954056,427.357361 87.445999,427.174866 
	C86.978935,427.237000 86.999832,427.037598 87.003143,426.485077 
	C87.003693,392.298401 87.003479,358.664246 86.997070,325.030090 
	C86.993942,308.635956 92.396286,294.509979 104.366852,283.042786 
	C105.847961,281.623962 106.777969,279.629852 107.963364,277.902313 
	C116.019768,274.603027 124.076157,271.303772 132.873428,267.867554 
	C140.993164,265.073761 148.372009,262.416901 155.859161,260.143311 
	C160.601028,274.037170 167.367111,286.223572 177.999634,296.009186 
z"/>
<path fill="#EF4D55" opacity="1.000000" stroke="none" 
	d="
M107.575439,277.941071 
	C106.777969,279.629852 105.847961,281.623962 104.366852,283.042786 
	C92.396286,294.509979 86.993942,308.635956 86.997070,325.030090 
	C87.003479,358.664246 87.003693,392.298401 87.017471,426.385864 
	C77.045647,426.895752 67.062813,426.952332 56.622162,427.013977 
	C56.106030,394.896820 55.689720,362.768921 56.198452,330.655670 
	C56.359821,320.469147 61.373825,311.278351 67.449272,303.046722 
	C77.413902,289.545563 91.614532,282.648438 107.575439,277.941071 
z"/>
<path fill="#7F4D2A" opacity="1.000000" stroke="none" 
	d="
M155.750854,259.760040 
	C148.372009,262.416901 140.993164,265.073761 133.245911,267.807068 
	C126.962433,263.811768 120.326271,260.476227 115.271965,255.525696 
	C101.868607,242.397507 101.754135,213.611023 114.696114,201.923340 
	C118.932137,198.097839 124.282387,195.516068 128.578644,191.745239 
	C137.465073,183.945572 140.125000,173.308807 141.261963,161.684021 
	C147.336929,165.775925 154.006958,166.496155 160.996750,166.500580 
	C163.367752,175.944214 165.696152,184.970001 167.668274,194.031921 
	C162.995102,196.756882 158.166473,198.879868 154.454285,202.237274 
	C141.733383,213.742371 141.682175,241.056702 153.922531,254.466934 
	C155.104980,255.762375 155.954559,257.361633 156.735229,258.949524 
	C156.258148,259.306091 156.004501,259.533081 155.750854,259.760040 
z"/>
<path fill="#EEA78B" opacity="1.000000" stroke="none" 
	d="
M160.954132,166.082733 
	C154.006958,166.496155 147.336929,165.775925 141.239716,161.261612 
	C130.499466,153.587646 127.465164,138.382782 135.958649,126.382996 
	C142.816055,119.360970 150.505341,115.173447 160.686981,117.113968 
	C160.428772,120.241020 160.567108,123.286407 159.145706,125.127785 
	C151.551865,134.965317 150.790695,145.910736 158.123810,155.941803 
	C160.495773,159.186417 161.335068,162.331512 160.954132,166.082733 
z"/>
<path fill="#F4BDA4" opacity="1.000000" stroke="none" 
	d="
M160.996750,166.500580 
	C161.335068,162.331512 160.495773,159.186417 158.123810,155.941803 
	C150.790695,145.910736 151.551865,134.965317 159.145706,125.127785 
	C160.567108,123.286407 160.428772,120.241020 161.018112,117.317184 
	C165.705200,116.814331 170.384430,116.745552 175.520660,116.586212 
	C184.411209,115.794281 192.844711,115.092911 201.648621,114.789711 
	C202.338348,133.951202 202.005478,152.754791 203.161118,171.466461 
	C204.308334,190.041580 213.746750,204.480667 228.476669,215.807938 
	C239.670914,224.416290 250.642487,227.453857 262.410309,217.233124 
	C262.532135,217.127289 262.703827,217.078842 262.852234,217.003616 
	C262.880585,222.789734 262.887909,228.576035 262.942261,234.361908 
	C263.020081,242.650345 266.739807,247.959549 274.533112,251.004807 
	C281.603638,253.767593 288.669403,256.542542 296.006775,259.546387 
	C294.887024,263.577118 293.497711,267.373657 292.101990,271.530945 
	C268.056366,271.939911 244.017151,271.988098 219.515594,272.068848 
	C211.420914,272.064148 203.757233,272.451965 196.163376,271.892456 
	C184.019196,270.997711 178.436661,280.049866 178.050598,289.622375 
	C177.977097,291.444885 178.037964,293.272797 178.018250,295.553711 
	C167.367111,286.223572 160.601028,274.037170 155.859161,260.143311 
	C156.004501,259.533081 156.258148,259.306091 157.091278,258.897034 
	C165.127457,255.817795 172.584152,252.920609 180.487228,250.022583 
	C186.197693,249.681046 191.569946,249.881683 196.697372,248.857101 
	C202.569031,247.683807 208.401245,245.843811 213.920609,243.512268 
	C219.160828,241.298660 220.425110,236.333496 219.904205,231.021362 
	C219.803116,229.990524 218.899933,228.493301 218.015076,228.168137 
	C208.450500,224.653366 198.815552,221.330109 189.039520,217.651093 
	C180.376770,210.948730 173.571014,203.034561 168.024551,193.995773 
	C165.696152,184.970001 163.367752,175.944214 160.996750,166.500580 
z"/>
<path fill="#EF4D55" opacity="1.000000" stroke="none" 
	d="
M109.262863,428.203186 
	C109.026909,416.212372 108.957367,404.577576 109.054848,392.944244 
	C109.076813,390.322601 109.592743,387.690674 110.038879,385.090546 
	C110.655197,381.498535 112.217964,379.079498 116.487190,378.914337 
	C121.202385,378.731964 123.570442,381.144043 124.803284,385.166626 
	C125.179108,386.392944 124.993637,387.804169 124.993958,389.130707 
	C124.999413,412.066895 124.993721,435.003113 124.980690,458.394958 
	C110.183487,459.543152 109.829727,459.182526 109.788185,444.491943 
	C109.773170,439.181000 109.593964,433.870483 109.262863,428.203186 
z"/>
<path fill="#4887C6" opacity="1.000000" stroke="none" 
	d="
M321.263397,398.074738 
	C316.893677,402.059204 312.676422,406.238098 308.036377,409.877960 
	C307.003967,410.687805 304.059326,410.217072 302.712036,409.291870 
	C286.946625,398.466095 277.825317,383.527039 274.918182,364.553375 
	C272.768677,350.524231 275.678192,351.718658 287.173370,350.219025 
	C296.026001,349.064148 305.071472,349.387573 314.409851,349.459106 
	C313.777435,350.260834 312.797424,350.855377 311.750000,351.019440 
	C306.928986,351.774353 304.103149,354.056396 305.002014,359.373596 
	C305.934814,364.891144 306.286652,370.599426 307.981445,375.874451 
	C310.656403,384.200134 314.083923,392.328613 321.263397,398.074738 
z"/>
<path fill="#6497D6" opacity="1.000000" stroke="none" 
	d="
M321.549927,397.920349 
	C314.083923,392.328613 310.656403,384.200134 307.981445,375.874451 
	C306.286652,370.599426 305.934814,364.891144 305.002014,359.373596 
	C304.103149,354.056396 306.928986,351.774353 311.750000,351.019440 
	C312.797424,350.855377 313.777435,350.260834 314.872833,349.514465 
	C321.013611,350.046387 327.076111,350.889160 333.124084,351.826080 
	C336.436340,352.339203 337.231018,354.635925 337.188721,357.657928 
	C336.975250,372.917267 331.771606,386.240784 321.549927,397.920349 
z"/>
<path fill="#F9CBB4" opacity="1.000000" stroke="none" 
	d="
M263.080078,216.751007 
	C262.703827,217.078842 262.532135,217.127289 262.410309,217.233124 
	C250.642487,227.453857 239.670914,224.416290 228.476669,215.807938 
	C213.746750,204.480667 204.308334,190.041580 203.161118,171.466461 
	C202.005478,152.754791 202.338348,133.951202 202.025757,114.740768 
	C206.891602,110.914917 212.425751,108.177818 216.419418,103.976402 
	C220.387695,99.801720 222.806824,94.154503 226.324722,88.476044 
	C227.066605,89.889740 227.785782,91.025955 228.287262,92.251266 
	C234.684433,107.881752 247.817917,116.810577 264.649231,116.884895 
	C273.122040,116.922310 281.595154,116.895699 290.535095,116.942596 
	C291.001984,133.023743 291.001862,149.060303 291.014893,165.568314 
	C289.336395,187.006088 280.352814,203.966522 263.080078,216.751007 
z"/>
<path fill="#935D38" opacity="1.000000" stroke="none" 
	d="
M180.040848,250.023438 
	C172.584152,252.920609 165.127457,255.817795 157.314713,258.767426 
	C155.954559,257.361633 155.104980,255.762375 153.922531,254.466934 
	C141.682175,241.056702 141.733383,213.742371 154.454285,202.237274 
	C158.166473,198.879868 162.995102,196.756882 167.668274,194.031921 
	C173.571014,203.034561 180.376770,210.948730 188.967041,218.118683 
	C189.036667,223.046539 188.733627,227.225937 189.060806,231.355423 
	C189.700745,239.432678 186.685120,245.558304 180.040848,250.023438 
z"/>
<path fill="#EFA78B" opacity="1.000000" stroke="none" 
	d="
M180.487228,250.022583 
	C186.685120,245.558304 189.700745,239.432678 189.060806,231.355423 
	C188.733627,227.225937 189.036667,223.046539 189.127350,218.422119 
	C198.815552,221.330109 208.450500,224.653366 218.015076,228.168137 
	C218.899933,228.493301 219.803116,229.990524 219.904205,231.021362 
	C220.425110,236.333496 219.160828,241.298660 213.920609,243.512268 
	C208.401245,245.843811 202.569031,247.683807 196.697372,248.857101 
	C191.569946,249.881683 186.197693,249.681046 180.487228,250.022583 
z"/>
</svg>